<?xml version="1.0" encoding="UTF-8" standalone="no"?>
<!DOCTYPE svg PUBLIC "-//W3C//DTD SVG 1.1//EN" "http://www.w3.org/Graphics/SVG/1.1/DTD/svg11.dtd">
<!-- Created with Vectornator (http://vectornator.io/) -->
<svg height="100%" stroke-miterlimit="10" style="fill-rule:nonzero;clip-rule:evenodd;stroke-linecap:round;stroke-linejoin:round;" version="1.1" viewBox="0 0 1024 1024" width="100%" xml:space="preserve" xmlns="http://www.w3.org/2000/svg" xmlns:vectornator="http://vectornator.io" xmlns:xlink="http://www.w3.org/1999/xlink">
<defs/>
<g id="Layer-1" vectornator:layerName="Layer 1">
<path d="M129.846 129.846L129.846 206.311C129.846 208.081 129.846 209.762 129.846 211.546C204.054 211.546 291.759 211.546 384.001 211.546L131.338 488.39L131.338 540.578L384.879 540.578C408.916 514.246 430.823 490.235 454.393 464.414L293.83 464.414L521.583 211.546C549.245 211.546 587.699 211.546 609.737 211.546L703.241 211.546L649.91 269.969C520.649 411.587 266.356 690.187 132.873 836.43C132.873 853.667 132.873 873.166 132.873 894.153C343.641 894.153 683.402 894.154 894.154 894.153L894.154 814.655C894.154 814.099 894.154 813.578 894.154 813.021C817.201 813.021 725.906 813.021 630.701 813.021L891.478 518.369L891.478 465.348L654.077 465.348C628.458 493.788 606.997 517.595 582.15 545.18L726.661 545.18L486.453 813.021C465.025 813.021 433.463 813.021 415.798 813.021L322.952 813.021L375.405 754.798C503.763 612.3 756.349 331.896 888.847 184.802C888.847 168.344 888.847 149.908 888.847 129.846C794.86 129.846 671.824 129.846 549.432 129.846L129.846 129.846Z" fill="#000000" fill-rule="nonzero" opacity="0" stroke="none" vectornator:layerName="Curve 2"/>
<path d="M129.846 129.846L129.846 206.311C129.846 208.081 129.846 209.762 129.846 211.546C204.054 211.546 291.759 211.546 384.001 211.546L131.338 488.39L131.338 540.578L384.879 540.578C408.916 514.246 430.823 490.235 454.393 464.414L293.83 464.414L521.583 211.546C549.245 211.546 587.699 211.546 609.737 211.546L703.241 211.546L649.91 269.969C520.649 411.587 266.356 690.187 132.873 836.43C132.873 853.667 132.873 873.166 132.873 894.153C343.641 894.153 683.402 894.154 894.154 894.153L894.154 814.655C894.154 814.099 894.154 813.578 894.154 813.021C817.201 813.021 725.906 813.021 630.701 813.021L891.478 518.369L891.478 465.348L654.077 465.348C628.458 493.788 606.997 517.595 582.15 545.18L726.661 545.18L486.453 813.021C465.025 813.021 433.463 813.021 415.798 813.021L322.952 813.021L375.405 754.798C503.763 612.3 756.349 331.896 888.847 184.802C888.847 168.344 888.847 149.908 888.847 129.846C794.86 129.846 671.824 129.846 549.432 129.846L129.846 129.846Z" fill="#000000" fill-rule="nonzero" opacity="1" stroke="none" vectornator:layerName="Curve 3"/>
</g>
</svg>
